<svg width="27" height="27" viewBox="0 0 27 27" fill="none" xmlns="http://www.w3.org/2000/svg">
<path fill-rule="evenodd" clip-rule="evenodd" d="M20.976 12.1379H7.87706L11.8879 7.32689C12.2787 6.85903 12.2147 6.16275 11.7466 5.77323C11.2774 5.38261 10.5819 5.44661 10.1921 5.91448L4.67214 12.5352C4.62909 12.587 4.60701 12.6477 4.57499 12.7051C4.5485 12.7514 4.51648 12.7912 4.49661 12.8419C4.44693 12.9688 4.41712 13.1023 4.41712 13.237C4.41712 13.2381 4.41602 13.2403 4.41602 13.2414C4.41602 13.2425 4.41712 13.2447 4.41712 13.2458C4.41712 13.3804 4.44693 13.5139 4.49661 13.6408C4.51648 13.6916 4.5485 13.7313 4.57499 13.7776C4.60701 13.835 4.62909 13.8957 4.67214 13.9476L10.1921 20.5683C10.4107 20.8298 10.7243 20.9655 11.04 20.9655C11.2895 20.9655 11.5401 20.8817 11.7466 20.7095C12.2147 20.32 12.2787 19.6237 11.8879 19.1559L7.87706 14.3448H20.976C21.5854 14.3448 22.08 13.8505 22.08 13.2414C22.08 12.6323 21.5854 12.1379 20.976 12.1379Z" fill="#585969"/>
<mask id="mask0" style="mask-type:alpha" maskUnits="userSpaceOnUse" x="4" y="5" width="19" height="16">
<path fill-rule="evenodd" clip-rule="evenodd" d="M20.976 12.1379H7.87706L11.8879 7.32689C12.2787 6.85903 12.2147 6.16275 11.7466 5.77323C11.2774 5.38261 10.5819 5.44661 10.1921 5.91448L4.67214 12.5352C4.62909 12.587 4.60701 12.6477 4.57499 12.7051C4.5485 12.7514 4.51648 12.7912 4.49661 12.8419C4.44693 12.9688 4.41712 13.1023 4.41712 13.237C4.41712 13.2381 4.41602 13.2403 4.41602 13.2414C4.41602 13.2425 4.41712 13.2447 4.41712 13.2458C4.41712 13.3804 4.44693 13.5139 4.49661 13.6408C4.51648 13.6916 4.5485 13.7313 4.57499 13.7776C4.60701 13.835 4.62909 13.8957 4.67214 13.9476L10.1921 20.5683C10.4107 20.8298 10.7243 20.9655 11.04 20.9655C11.2895 20.9655 11.5401 20.8817 11.7466 20.7095C12.2147 20.32 12.2787 19.6237 11.8879 19.1559L7.87706 14.3448H20.976C21.5854 14.3448 22.08 13.8505 22.08 13.2414C22.08 12.6323 21.5854 12.1379 20.976 12.1379Z" fill="white"/>
</mask>
<g mask="url(#mask0)">
</g>
</svg>
