<svg width="36" height="36" viewBox="0 0 36 36" fill="none" xmlns="http://www.w3.org/2000/svg">
<path opacity="0.15" d="M6 28.5C6 30.1569 7.34315 31.5 9 31.5H27C28.6569 31.5 30 30.1569 30 28.5V16.5H6V28.5Z" fill="#001A72"/>
<path d="M22.5 4.5V10.5M13.5 4.5V10.5M6 16.5H30M30 16.5V28.5C30 30.1569 28.6569 31.5 27 31.5H9C7.34315 31.5 6 30.1569 6 28.5V10.5C6 8.84315 7.34315 7.5 9 7.5H27C28.6569 7.5 30 8.84315 30 10.5V16.5Z" stroke="#5F4BAE" stroke-width="2.5" stroke-linecap="round" stroke-linejoin="round"/>
</svg>
