<svg width="28" height="28" viewBox="0 0 42 42" fill="none" xmlns="http://www.w3.org/2000/svg">
<circle cx="21" cy="21" r="21" fill="#5F4BAE"/>
<path d="M26.1497 24.2036C28.8122 20.432 27.9217 15.2094 24.162 12.539C20.4022 9.8687 15.1961 10.7614 12.5342 14.5336C9.87227 18.3053 10.7621 23.5273 14.5225 26.1976C17.206 28.1035 20.754 28.2503 23.5845 26.5734L27.9888 30.4551C28.6528 31.1563 29.7577 31.1844 30.4567 30.5182C31.1557 29.8527 31.1837 28.7444 30.5203 28.0432C30.4993 28.0208 30.479 28.0004 30.4567 27.9794L26.1497 24.2036ZM19.3368 24.7753C16.3658 24.776 13.957 22.3615 13.9551 19.3811C13.9545 16.4006 16.3614 13.9843 19.333 13.983C22.3002 13.9817 24.7077 16.3924 24.7135 19.369C24.7186 22.35 22.313 24.7702 19.3407 24.7753H19.3368Z" fill="white"/>
</svg>
